<?xml version="1.0" encoding="utf-8"?>
<!-- Generator: Adobe Illustrator 19.2.1, SVG Export Plug-In . SVG Version: 6.00 Build 0)  -->
<svg version="1.1" id="Layer_1" xmlns="http://www.w3.org/2000/svg" xmlns:xlink="http://www.w3.org/1999/xlink" x="0px" y="0px"
	 viewBox="0 0 126.7 181" style="enable-background:new 0 0 126.7 181;" xml:space="preserve">
<style type="text/css">
	.st0{fill-rule:evenodd;clip-rule:evenodd;fill:#FFFFFF;}
	.st1{fill:#FFFFFF;}
</style>
<g>
	<g>
		<g id="XMLID_1_">
			<path class="st0" d="M80.9,26.8H69.1c-1.8-7.5-4.7-13.7-8.6-18.5C69.2,11.8,76.6,18.5,80.9,26.8z M48.1,5.8
				c3.2,0.9,6.1,3.2,8.9,7c2.7,3.8,4.8,8.4,6.3,14H48.1V5.8z M42.5,83.1c-3.2-0.9-6.2-3.3-9-7.1c-2.7-3.8-4.8-8.5-6.2-14.1h15.2
				V83.1z M42.5,56.6H26.1c-0.7-4.3-1-8.4-1-12.2c0-4.1,0.4-8.2,1.1-12.3h16.4V56.6z M42.5,26.8H27.3c1.5-5.6,3.6-10.2,6.3-14
				c2.7-3.8,5.7-6.1,8.9-7V26.8z M9.8,61.9h11.8c1.8,7.6,4.7,13.9,8.6,18.7C21.3,77,14,70.3,9.8,61.9z M30.2,8.3
				c-3.9,4.9-6.8,11-8.6,18.5H9.8C14.1,18.5,21.5,11.8,30.2,8.3z M5.5,44.4c0-4.2,0.7-8.3,2-12.3h13c-0.6,4.1-0.9,8.2-0.9,12.3
				c0,4,0.3,8,0.9,12.2H7.4C6.1,52.6,5.5,48.5,5.5,44.4z M87.9,166.5c-5.1,0-5.1,8,0,8S93.1,166.5,87.9,166.5z M84.4,66.9
				c-4.9,8.3-12.1,14.5-21.5,18.5c-2.7,1.1-5.4,2-8.2,2.5v69.9c0,0.9,0.8,1.6,1.8,1.6h61.2c1,0,1.8-0.7,1.8-1.6V66.9L84.4,66.9z
				 M85.2,45.9c0-0.5,0-1,0-1.5c0-4.2-0.7-8.3-2-12.3h-13c0.7,4.1,0.9,8.2,0.9,12.3c0,0.5,0,1,0,1.5c0,2.1-0.2,4.3-0.4,6.5
				c-0.1,1.4-0.3,2.8-0.5,4.2h13.1c0.4-1.4,0.8-2.8,1.1-4.2C84.8,50.3,85.1,48.1,85.2,45.9z M47.3,88.9c-0.7,0-1.4,0.1-2,0.1
				c-6.1,0-12-1.2-17.6-3.5C16.6,80.7,8.4,72.7,3.6,61.7C1.2,56.2,0,50.4,0,44.4c0-6,1.2-11.8,3.6-17.3c4.8-11,13-18.9,24.1-23.6
				C33.3,1.2,39.2,0,45.3,0s12,1.2,17.6,3.6c11.2,4.7,19.4,12.7,24.2,23.6c2.4,5.5,3.6,11.2,3.6,17.3c0,0.5,0,1,0,1.5h21.6
				c0,0,14.4,0,14.4,12.3v110.5c0,12.3-14.4,12.3-14.4,12.3H61.8c0,0-14.5,0-14.5-12.3V88.9z M54.6,61.9h-6.5v21.2
				c2.4-0.6,4.6-2,6.6-4.2c0.8-0.8,1.6-1.8,2.3-2.9c1.8-2.6,3.4-5.6,4.7-9.1c0.6-1.5,1.1-3.1,1.5-4.7c0-0.1,0-0.2,0.1-0.3H54.6z
				 M67.6,66.9c-1.8,5.4-4.2,10-7.2,13.7c7.1-2.9,13.1-7.7,17.5-13.7c1.1-1.5,2-3.1,2.9-4.7c0-0.1,0.1-0.2,0.1-0.3H69.1
				c0,0.1,0,0.2-0.1,0.3C68.6,63.8,68.2,65.4,67.6,66.9z M48.1,53.8V32.2h16.4c0.7,4.1,1.1,8.2,1.1,12.3c0,0.5,0,1,0,1.5
				c0,2.1-0.2,4.2-0.4,6.5c-0.1,1.4-0.3,2.7-0.5,4.2h-10h-6.5V53.8z M86.8,62.2h32.8l-0.2-7.9c0-1-0.8-1.9-1.8-1.9H89.9
				c-0.6,3.2-1.5,6.3-2.9,9.3C87,61.9,86.9,62.1,86.8,62.2z"/>
		</g>
	</g>
	<g>
		<path class="st1" d="M103.7,105.1L89.9,91.3c-0.5-0.5-1.2-0.8-1.9-0.8c-0.8,0-1.4,0.3-1.9,0.8l-13.8,13.8
			c-0.5,0.5-0.8,1.2-0.8,1.9c0,0.7,0.3,1.4,0.8,1.9l1.6,1.6c0.5,0.5,1.1,0.8,1.9,0.8c0.8,0,1.4-0.3,1.9-0.8l6.2-6.2v22
			c0,0.7,0.3,1.5,0.8,2c0.5,0.5,1.2,0.7,1.9,0.7h2.7c0.8,0,1.3-0.2,1.8-0.7c0.5-0.5,0.9-1.2,0.9-2v-22l6.2,6.2
			c0.5,0.5,1.1,0.8,1.9,0.8c0.7,0,1.4-0.3,1.9-0.8l1.6-1.6c0.5-0.6,0.8-1.2,0.8-1.9C104.5,106.3,104.2,105.7,103.7,105.1
			L103.7,105.1z M103.7,105.1"/>
	</g>
</g>
</svg>
