<?xml version="1.0" encoding="UTF-8"?>
<svg width="203px" height="183px" viewBox="0 0 203 183" version="1.1" xmlns="http://www.w3.org/2000/svg" xmlns:xlink="http://www.w3.org/1999/xlink">
    <!-- Generator: Sketch 40.2 (33826) - http://www.bohemiancoding.com/sketch -->
    <title>icon_IntCalling_eur</title>
    <desc>Created with Sketch.</desc>
    <defs></defs>
    <g id="Page-1" stroke="none" stroke-width="1" fill="none" fill-rule="evenodd">
        <g id="icon_IntCalling_eur">
            <path d="M41.3515625,64.2578125 C42.1536498,69.6146101 43.8508985,73.6393095 46.4433594,76.3320312 C49.0358203,79.024753 52.7096116,80.3710938 57.4648438,80.3710938 C60.7018391,80.3710938 63.4518116,79.6621165 65.7148438,78.2441406 C67.9778759,76.8261648 70.0690008,74.3411636 71.9882812,70.7890625 L78.3046875,74.7421875 C75.8124875,79.3255437 72.9550942,82.5553292 69.7324219,84.4316406 C66.5097495,86.3079521 62.5065343,87.2460938 57.7226562,87.2460938 C43.1705002,87.2460938 34.9205827,79.58341 32.9726562,64.2578125 L28.3320312,64.2578125 L30.0078125,59.1445312 L32.5429688,59.1445312 L32.5429688,53.171875 L28.3320312,53.171875 L29.921875,48.0585938 L32.9726562,48.0585938 C33.9752654,40.4960559 36.4602666,34.8099149 40.4277344,31 C44.3952021,27.1900851 50.0168907,25.2851562 57.2929688,25.2851562 C60.5586101,25.2851562 63.4876172,25.7076781 66.0800781,26.5527344 C68.672539,27.3977907 70.8639233,28.5507739 72.6542969,30.0117188 C74.4446704,31.4726636 76.1562418,33.6210796 77.7890625,36.4570312 L71.2578125,40.5820312 C69.9687436,38.3476451 68.7083395,36.6862034 67.4765625,35.5976562 C66.2447855,34.5091091 64.7981854,33.6640655 63.1367188,33.0625 C61.4752521,32.4609345 59.5273549,32.1601562 57.2929688,32.1601562 C52.5377366,32.1601562 48.8925908,33.563788 46.3574219,36.3710938 C43.8222529,39.1783995 42.1536498,43.0741938 41.3515625,48.0585938 L66.7890625,48.0585938 L65.1992188,53.171875 L40.921875,53.171875 L40.921875,59.1445312 L63.6953125,59.1445312 L62.1054688,64.2578125 L41.3515625,64.2578125 Z" id="€" fill="#FFFFFF"></path>
            <path d="M57.6,107.5 C57.6,114.5 58.7,121.4 60.9,128.1 L83.1,128.1 C82,121.1 81.5,114.2 81.5,107.5 C81.5,105.1 81.6,102.7 81.7,100.3 C85.3,98.5 88.6,96.2 91.7,93.7 C91.1,98.3 90.9,102.9 90.9,107.5 C90.9,113.9 91.5,120.8 92.6,128.1 L120.5,128.1 L120.5,86.7 L98.5,86.7 C100.8,83.9 102.7,80.9 104.3,77.6 L120.5,77.6 L120.5,42.1 C116.4,43.2 112.6,45.7 109,49.6 C108.3,44.4 106.8,39.5 104.6,35 C111.3,33.1 118.1,32.2 125.2,32.2 C135.6,32.2 145.5,34.2 155.1,38.2 C174.2,46.2 188,59.7 196.1,78.2 C200.2,87.5 202.2,97.3 202.2,107.5 C202.2,117.7 200.1,127.5 196.1,136.9 C188,155.4 174.2,169 155.1,177 C145.6,181 135.7,183 125.2,183 C114.8,183 104.9,181 95.3,177 C76.4,169 62.5,155.5 54.3,136.9 C50.2,127.6 48.2,117.8 48.2,107.5 L48.2,105.2 C51.2,105.7 54.3,106 57.5,106 L57.5,106 C57.6,106.5 57.6,107 57.6,107.5 L57.6,107.5 Z M189.5,128.2 C191.7,121.5 192.8,114.6 192.8,107.6 C192.8,100.4 191.6,93.5 189.3,86.8 L167.3,86.8 C168.4,93.8 168.9,100.7 168.9,107.6 C168.9,114.4 168.4,121.2 167.3,128.2 L189.5,128.2 L189.5,128.2 Z M165.4,77.6 L185.5,77.6 C178.1,63.5 165.7,52.2 150.8,46.2 C157.5,54.5 162.3,64.9 165.4,77.6 L165.4,77.6 Z M185.5,137.2 L165.4,137.2 C162.3,150.1 157.4,160.8 150.8,169 C165.9,162.8 178.4,151.5 185.5,137.2 L185.5,137.2 Z M157.9,128.2 C159,120.9 159.6,114 159.6,107.6 C159.6,100.7 159,93.7 157.7,86.8 L129.9,86.8 L129.9,128.2 L157.9,128.2 L157.9,128.2 Z M129.9,77.6 L155.7,77.6 C153.1,68.2 149.5,60.3 144.9,53.9 C140.3,47.5 135.3,43.5 129.8,42 L129.8,77.6 L129.9,77.6 Z M155.8,137.2 L130,137.2 L130,173.1 C135.6,171.6 140.5,167.6 145.1,161.1 C149.7,154.7 153.2,146.7 155.8,137.2 L155.8,137.2 Z M120.4,173.1 L120.4,137.2 L94.6,137.2 C97,146.7 100.6,154.7 105.2,161.1 C109.8,167.6 115,171.6 120.4,173.1 L120.4,173.1 Z M99.6,169 C92.9,160.8 88.1,150.2 85,137.2 L64.8,137.2 C72,151.5 84.4,162.8 99.6,169 L99.6,169 Z" id="Shape" fill="#FFFFFF"></path>
            <path d="M104.5,35 C96.3,17.9 78.4,6 57.6,6 C29,6 5.9,28.4 5.9,56 C5.9,80.5 24.2,101 48.3,105.2 C51.3,105.7 54.4,106 57.6,106 L57.6,106 C66.3,106 74.5,103.9 81.7,100.3 C85.3,98.5 88.6,96.2 91.7,93.7 C94.2,91.6 96.5,89.3 98.5,86.8 C100.8,84 102.7,81 104.3,77.7 C107.6,71.2 109.4,63.8 109.4,56.1 C109.4,53.9 109.3,51.8 109,49.7 C108.2,44.5 106.7,39.5 104.5,35 L104.5,35 Z" id="Shape" stroke="#FFFFFF" stroke-width="8"></path>
        </g>
    </g>
</svg>