<?xml version="1.0" encoding="UTF-8"?>
<svg width="203px" height="183px" viewBox="0 0 203 183" version="1.1" xmlns="http://www.w3.org/2000/svg" xmlns:xlink="http://www.w3.org/1999/xlink">
    <!-- Generator: Sketch 40.2 (33826) - http://www.bohemiancoding.com/sketch -->
    <title>icon_IntCalling_gbp</title>
    <desc>Created with Sketch.</desc>
    <defs></defs>
    <g id="Page-1" stroke="none" stroke-width="1" fill="none" fill-rule="evenodd">
        <g id="icon_IntCalling_gbp">
            <path d="M33.8554688,84 L33.8554688,77.296875 C35.8320411,76.8958313 37.3645779,75.8860758 38.453125,74.2675781 C39.5416721,72.6490804 40.336586,70.715506 40.8378906,68.4667969 C41.3391952,66.2180877 41.5898438,62.9739795 41.5898438,58.734375 L34.8867188,58.734375 L34.8867188,53.1054688 L41.3320312,53.1054688 L40.9023438,51 C39.6419208,46.4452897 39.0117188,42.4922043 39.0117188,39.140625 C39.0117188,34.1848711 40.830711,30.3033995 44.46875,27.4960938 C48.106789,24.688788 53.0051775,23.2851562 59.1640625,23.2851562 C67.9297313,23.2851562 74.27472,26.4218436 78.1992188,32.6953125 L71.5820312,36.5625 C70.2929623,34.4999897 68.5957137,32.8528707 66.4902344,31.6210938 C64.3847551,30.3893168 61.9427222,29.7734375 59.1640625,29.7734375 C55.2968557,29.7734375 52.3392029,30.6972564 50.2910156,32.5449219 C48.2428283,34.3925874 47.21875,36.9921707 47.21875,40.34375 C47.21875,42.5208442 47.5624966,44.9843613 48.25,47.734375 C48.9661494,50.7135566 49.3528643,52.5039032 49.4101562,53.1054688 L65.78125,53.1054688 L65.78125,58.734375 L49.7539062,58.734375 C49.7539062,63.7474209 49.1666725,67.7076678 47.9921875,70.6152344 C46.8177025,73.522801 45.0989696,75.7499923 42.8359375,77.296875 L78.8007812,77.296875 L78.8007812,84 L33.8554688,84 Z" id="£" fill="#FFFFFF"></path>
            <path d="M57.6,107.5 C57.6,114.5 58.7,121.4 60.9,128.1 L83.1,128.1 C82,121.1 81.5,114.2 81.5,107.5 C81.5,105.1 81.6,102.7 81.7,100.3 C85.3,98.5 88.6,96.2 91.7,93.7 C91.1,98.3 90.9,102.9 90.9,107.5 C90.9,113.9 91.5,120.8 92.6,128.1 L120.5,128.1 L120.5,86.7 L98.5,86.7 C100.8,83.9 102.7,80.9 104.3,77.6 L120.5,77.6 L120.5,42.1 C116.4,43.2 112.6,45.7 109,49.6 C108.3,44.4 106.8,39.5 104.6,35 C111.3,33.1 118.1,32.2 125.2,32.2 C135.6,32.2 145.5,34.2 155.1,38.2 C174.2,46.2 188,59.7 196.1,78.2 C200.2,87.5 202.2,97.3 202.2,107.5 C202.2,117.7 200.1,127.5 196.1,136.9 C188,155.4 174.2,169 155.1,177 C145.6,181 135.7,183 125.2,183 C114.8,183 104.9,181 95.3,177 C76.4,169 62.5,155.5 54.3,136.9 C50.2,127.6 48.2,117.8 48.2,107.5 L48.2,105.2 C51.2,105.7 54.3,106 57.5,106 L57.5,106 C57.6,106.5 57.6,107 57.6,107.5 L57.6,107.5 Z M189.5,128.2 C191.7,121.5 192.8,114.6 192.8,107.6 C192.8,100.4 191.6,93.5 189.3,86.8 L167.3,86.8 C168.4,93.8 168.9,100.7 168.9,107.6 C168.9,114.4 168.4,121.2 167.3,128.2 L189.5,128.2 L189.5,128.2 Z M165.4,77.6 L185.5,77.6 C178.1,63.5 165.7,52.2 150.8,46.2 C157.5,54.5 162.3,64.9 165.4,77.6 L165.4,77.6 Z M185.5,137.2 L165.4,137.2 C162.3,150.1 157.4,160.8 150.8,169 C165.9,162.8 178.4,151.5 185.5,137.2 L185.5,137.2 Z M157.9,128.2 C159,120.9 159.6,114 159.6,107.6 C159.6,100.7 159,93.7 157.7,86.8 L129.9,86.8 L129.9,128.2 L157.9,128.2 L157.9,128.2 Z M129.9,77.6 L155.7,77.6 C153.1,68.2 149.5,60.3 144.9,53.9 C140.3,47.5 135.3,43.5 129.8,42 L129.8,77.6 L129.9,77.6 Z M155.8,137.2 L130,137.2 L130,173.1 C135.6,171.6 140.5,167.6 145.1,161.1 C149.7,154.7 153.2,146.7 155.8,137.2 L155.8,137.2 Z M120.4,173.1 L120.4,137.2 L94.6,137.2 C97,146.7 100.6,154.7 105.2,161.1 C109.8,167.6 115,171.6 120.4,173.1 L120.4,173.1 Z M99.6,169 C92.9,160.8 88.1,150.2 85,137.2 L64.8,137.2 C72,151.5 84.4,162.8 99.6,169 L99.6,169 Z" id="Shape" fill="#FFFFFF"></path>
            <path d="M104.5,35 C96.3,17.9 78.4,6 57.6,6 C29,6 5.9,28.4 5.9,56 C5.9,80.5 24.2,101 48.3,105.2 C51.3,105.7 54.4,106 57.6,106 L57.6,106 C66.3,106 74.5,103.9 81.7,100.3 C85.3,98.5 88.6,96.2 91.7,93.7 C94.2,91.6 96.5,89.3 98.5,86.8 C100.8,84 102.7,81 104.3,77.7 C107.6,71.2 109.4,63.8 109.4,56.1 C109.4,53.9 109.3,51.8 109,49.7 C108.2,44.5 106.7,39.5 104.5,35 L104.5,35 Z" id="Shape" stroke="#FFFFFF" stroke-width="8"></path>
        </g>
    </g>
</svg>