<?xml version="1.0" encoding="utf-8"?>
<!-- Generator: Adobe Illustrator 19.2.1, SVG Export Plug-In . SVG Version: 6.00 Build 0)  -->
<svg version="1.1" id="Layer_1" xmlns="http://www.w3.org/2000/svg" xmlns:xlink="http://www.w3.org/1999/xlink" x="0px" y="0px"
	 viewBox="0 0 74.8 80" style="enable-background:new 0 0 74.8 80;" xml:space="preserve">
<style type="text/css">
	.st0{fill:#FFFFFF;}
</style>
<g>
	<g>
		<path class="st0" d="M46.7,67.1l-34.2,0C5.6,67.1,0,61.5,0,54.7l0-41.2C0,6.6,5.6,1,12.4,1l49.9,0c6.9,0,12.4,5.6,12.4,12.4
			l0,41.2c0,5.8-4.2,10.9-9.8,12.1c-0.6,0.5-1.4,1.5-1.4,2.5c0,1.2,1.5,2.8,4,4.3c1,0.6,1.5,1.8,1.3,3c-0.2,1.2-1.2,2.1-2.4,2.2
			c-0.1,0-1,0.1-2.4,0.1C55.2,79,48.8,74.6,46.7,67.1z M12.4,6.6c-3.8,0-6.8,3.1-6.8,6.8l0,41.2c0,3.8,3.1,6.8,6.8,6.8l36.5,0
			c1.4,0,2.6,1,2.8,2.4c0.5,3.3,2.2,7.1,7,8.7c-0.5-1-0.7-2-0.7-3.1c-0.1-4.5,3.8-7.3,4.2-7.6c0.4-0.2,0.8-0.4,1.2-0.5
			c3.3-0.5,5.8-3.4,5.8-6.7l0-41.2c0-3.8-3.1-6.8-6.8-6.8L12.4,6.6z"/>
	</g>
	<g>
		<g>
			<path class="st0" d="M15.6,51.8l43.6,0c1.6,0,2.8-1.3,2.8-2.8c0-1.5-1.3-2.8-2.8-2.8l-43.6,0c-1.5,0-2.8,1.3-2.8,2.8
				C12.8,50.5,14,51.8,15.6,51.8z"/>
		</g>
		<g>
			<path class="st0" d="M15.6,37.6l43.6,0c1.6,0,2.8-1.3,2.8-2.8c0-1.6-1.3-2.8-2.8-2.8l-43.6,0c-1.6,0-2.8,1.3-2.8,2.8
				C12.8,36.3,14,37.6,15.6,37.6z"/>
		</g>
		<g>
			<path class="st0" d="M15.6,23.4l43.6,0c1.6,0,2.8-1.3,2.8-2.8c0-1.6-1.3-2.8-2.8-2.8l-43.6,0c-1.5,0-2.8,1.3-2.8,2.8
				C12.8,22.2,14,23.4,15.6,23.4z"/>
		</g>
	</g>
</g>
</svg>
