<?xml version="1.0" encoding="utf-8"?>
<!-- Generator: Adobe Illustrator 19.2.1, SVG Export Plug-In . SVG Version: 6.00 Build 0)  -->
<svg version="1.1" id="Layer_1" xmlns="http://www.w3.org/2000/svg" xmlns:xlink="http://www.w3.org/1999/xlink" x="0px" y="0px"
	 viewBox="0 0 157.5 164.8" style="enable-background:new 0 0 157.5 164.8;" xml:space="preserve">
<style type="text/css">
	.st0{fill:none;stroke:#ffffff;stroke-width:4.5;stroke-miterlimit:10;}
</style>
<g>
	<g id="XMLID_1_">
		<path class="st0" d="M68.6,154.6c3.5,5.6,7.8,7.2,12.6,7.3l32,0.6c0.1,0,0.1,0,0.2,0c9.1-0.7,16.9-9.3,17.7-20.6l0-1.7v-5.6v-15.1
			l0-1.7v-2.1l0.4-21.8c0.1-5.7-3.4-10.4-8.1-10.5c-2.4,0-4.7,1.2-6.3,3.4c-0.1,0.2-0.4,0.1-0.4-0.1c-0.5-5.7-4.4-10.2-9.3-10.3
			c-3.3-0.1-6.2,1.9-8.1,5.1c-0.1,0.1-0.2,0.1-0.2,0c-1.7-3.3-4.7-5.4-7.9-5.4c-2.4-0.1-5,1-6.5,2.8c-0.1,0.1-0.3,0.1-0.3-0.1
			l0.4-25.4c0.1-6.5-4.3-11.8-9.5-11.9c-5.3-0.1-9.8,5-9.9,11.5l-0.9,50.1c0,0.2-0.3,0.3-0.4,0.1l-2.9-7.3c-1.6-3.8-4.7-6.2-8.2-6.3
			c-1.6,0-3.2,0.4-4.6,1.4c-4.4,2.9-6.3,9.4-4.4,15l17.8,34.7l3.1,6c0.3,0.7,2.6,6.3,3.2,7.3C68.3,154.2,68.5,154.4,68.6,154.6z"/>
		<path class="st0" d="M68.6,154.6c-37.5-5-66.4-37-66.4-75.8c0-42.3,34.2-76.5,76.5-76.5s76.5,34.3,76.5,76.5
			c0,22-9.3,41.9-24.2,55.9v-15.1l0-1.7v-2.1l0.4-21.8c0.1-5.7-3.4-10.4-8.1-10.5c-2.4,0-4.7,1.2-6.3,3.4c-0.1,0.2-0.4,0.1-0.4-0.1
			c-0.5-5.7-4.4-10.2-9.3-10.3c-3.3-0.1-6.2,1.9-8.1,5.1c-0.1,0.1-0.2,0.1-0.2,0c-1.7-3.3-4.7-5.4-7.9-5.4c-2.4-0.1-5,1-6.5,2.8
			c-0.1,0.1-0.3,0.1-0.3-0.1l0.4-25.4c0.1-6.5-4.3-11.8-9.5-11.9c-5.3-0.1-9.8,5-9.9,11.5l-0.9,50.1c0,0.2-0.3,0.3-0.4,0.1l-2.9-7.3
			c-1.6-3.8-4.7-6.2-8.2-6.3c-1.6,0-3.2,0.4-4.6,1.4c-4.4,2.9-6.3,9.4-4.4,15l17.8,34.7l3.1,6c0.3,0.7,2.6,6.3,3.2,7.3
			C68.3,154.2,68.5,154.4,68.6,154.6z"/>
	</g>
</g>
</svg>
