<?xml version="1.0" encoding="UTF-8"?>
<svg width="203px" height="183px" viewBox="0 0 203 183" version="1.1" xmlns="http://www.w3.org/2000/svg" xmlns:xlink="http://www.w3.org/1999/xlink">
    <!-- Generator: Sketch 40.2 (33826) - http://www.bohemiancoding.com/sketch -->
    <title>icon_IntCalling_usd</title>
    <desc>Created with Sketch.</desc>
    <defs></defs>
    <g id="Page-1" stroke="none" stroke-width="1" fill="none" fill-rule="evenodd">
        <g id="icon_IntCalling_usd">
            <path d="M46.3,73.2 C45.5,71.7 44.9,69.5 44.6,66.6 C44.5,65.6 43.7,64.9 42.7,64.9 L39,64.9 C37.9,64.9 37.1,65.8 37.1,66.9 C37.3,70.7 38,73.8 39.4,76.2 C42,81 46.9,83.8 54.1,84.6 C55.1,84.7 55.8,85.5 55.8,86.5 L55.8,91 C55.8,92 56.6,92.9 57.7,92.9 L58,92.9 C59,92.9 59.9,92.1 59.9,91 L59.9,86.5 C59.9,85.6 60.6,84.8 61.5,84.6 C65.7,84 69,82.9 71.4,81.4 C76.2,78.3 78.5,73.1 78.5,65.7 C78.5,60.6 76.6,56.8 72.9,54.2 C70.7,52.8 66.8,51.2 61.2,49.5 C60.4,49.3 59.8,48.5 59.8,47.7 L59.8,31.1 C59.8,29.9 60.9,29 62,29.2 C64.7,29.7 66.7,31.1 68.1,33.3 C68.8,34.4 69.3,35.8 69.6,37.2 C69.8,38.1 70.5,38.7 71.4,38.7 L75,38.7 C76.1,38.7 77,37.7 76.9,36.6 C76.4,32.9 74.9,29.8 72.4,27.4 C69.8,24.9 66.1,23.3 61.5,22.7 C60.5,22.6 59.8,21.8 59.8,20.8 L59.8,18.9 C59.8,17.9 59,17 57.9,17 L57.7,17 C56.7,17 55.8,17.8 55.8,18.9 L55.8,21 C55.8,21.9 55.1,22.7 54.2,22.8 C49.4,23.1 45.6,24.9 42.9,27.9 C39.9,31.3 38.3,35 38.3,39.3 C38.3,44 39.7,47.7 42.6,50.3 C45.2,52.7 49.1,54.5 54.4,55.7 C55.3,55.9 55.9,56.6 55.9,57.5 L55.9,76.4 C55.9,77.6 54.8,78.5 53.6,78.2 C50.2,77.5 47.7,75.8 46.3,73.2 L46.3,73.2 L46.3,73.2 Z M59.8,59.4 C59.8,58.1 61,57.2 62.3,57.6 C64.5,58.3 66.1,59.1 67.2,59.9 C69.7,61.7 71,64.3 71,67.8 C71,70 70.5,71.9 69.6,73.5 C68.1,76.2 65.5,77.9 62,78.5 C60.9,78.7 59.8,77.8 59.8,76.6 L59.8,59.4 L59.8,59.4 Z M48.5,45.1 C46.7,43.6 45.7,41.4 45.7,38.7 C45.7,36.5 46.5,34.3 48,32.2 C49.2,30.6 51.1,29.5 53.6,29.1 C54.7,28.9 55.8,29.8 55.8,31 L55.8,46 C55.8,47.3 54.6,48.2 53.4,47.8 C51.5,47.2 49.8,46.3 48.5,45.1 L48.5,45.1 L48.5,45.1 Z" id="Shape" fill="#FFFFFF"></path>
            <path d="M57.6,107.5 C57.6,114.5 58.7,121.4 60.9,128.1 L83.1,128.1 C82,121.1 81.5,114.2 81.5,107.5 C81.5,105.1 81.6,102.7 81.7,100.3 C85.3,98.5 88.6,96.2 91.7,93.7 C91.1,98.3 90.9,102.9 90.9,107.5 C90.9,113.9 91.5,120.8 92.6,128.1 L120.5,128.1 L120.5,86.7 L98.5,86.7 C100.8,83.9 102.7,80.9 104.3,77.6 L120.5,77.6 L120.5,42.1 C116.4,43.2 112.6,45.7 109,49.6 C108.3,44.4 106.8,39.5 104.6,35 C111.3,33.1 118.1,32.2 125.2,32.2 C135.6,32.2 145.5,34.2 155.1,38.2 C174.2,46.2 188,59.7 196.1,78.2 C200.2,87.5 202.2,97.3 202.2,107.5 C202.2,117.7 200.1,127.5 196.1,136.9 C188,155.4 174.2,169 155.1,177 C145.6,181 135.7,183 125.2,183 C114.8,183 104.9,181 95.3,177 C76.4,169 62.5,155.5 54.3,136.9 C50.2,127.6 48.2,117.8 48.2,107.5 L48.2,105.2 C51.2,105.7 54.3,106 57.5,106 L57.5,106 C57.6,106.5 57.6,107 57.6,107.5 L57.6,107.5 Z M189.5,128.2 C191.7,121.5 192.8,114.6 192.8,107.6 C192.8,100.4 191.6,93.5 189.3,86.8 L167.3,86.8 C168.4,93.8 168.9,100.7 168.9,107.6 C168.9,114.4 168.4,121.2 167.3,128.2 L189.5,128.2 L189.5,128.2 Z M165.4,77.6 L185.5,77.6 C178.1,63.5 165.7,52.2 150.8,46.2 C157.5,54.5 162.3,64.9 165.4,77.6 L165.4,77.6 Z M185.5,137.2 L165.4,137.2 C162.3,150.1 157.4,160.8 150.8,169 C165.9,162.8 178.4,151.5 185.5,137.2 L185.5,137.2 Z M157.9,128.2 C159,120.9 159.6,114 159.6,107.6 C159.6,100.7 159,93.7 157.7,86.8 L129.9,86.8 L129.9,128.2 L157.9,128.2 L157.9,128.2 Z M129.9,77.6 L155.7,77.6 C153.1,68.2 149.5,60.3 144.9,53.9 C140.3,47.5 135.3,43.5 129.8,42 L129.8,77.6 L129.9,77.6 Z M155.8,137.2 L130,137.2 L130,173.1 C135.6,171.6 140.5,167.6 145.1,161.1 C149.7,154.7 153.2,146.7 155.8,137.2 L155.8,137.2 Z M120.4,173.1 L120.4,137.2 L94.6,137.2 C97,146.7 100.6,154.7 105.2,161.1 C109.8,167.6 115,171.6 120.4,173.1 L120.4,173.1 Z M99.6,169 C92.9,160.8 88.1,150.2 85,137.2 L64.8,137.2 C72,151.5 84.4,162.8 99.6,169 L99.6,169 Z" id="Shape" fill="#FFFFFF"></path>
            <path d="M104.5,35 C96.3,17.9 78.4,6 57.6,6 C29,6 5.9,28.4 5.9,56 C5.9,80.5 24.2,101 48.3,105.2 C51.3,105.7 54.4,106 57.6,106 L57.6,106 C66.3,106 74.5,103.9 81.7,100.3 C85.3,98.5 88.6,96.2 91.7,93.7 C94.2,91.6 96.5,89.3 98.5,86.8 C100.8,84 102.7,81 104.3,77.7 C107.6,71.2 109.4,63.8 109.4,56.1 C109.4,53.9 109.3,51.8 109,49.7 C108.2,44.5 106.7,39.5 104.5,35 L104.5,35 Z" id="Shape" stroke="#FFFFFF" stroke-width="8"></path>
        </g>
    </g>
</svg>