<?xml version="1.0" encoding="utf-8"?>
<!-- Generator: Adobe Illustrator 19.2.1, SVG Export Plug-In . SVG Version: 6.00 Build 0)  -->
<svg version="1.1" id="Layer_1" xmlns="http://www.w3.org/2000/svg" xmlns:xlink="http://www.w3.org/1999/xlink" x="0px" y="0px"
	 viewBox="0 0 200 181" style="enable-background:new 0 0 200 181;" xml:space="preserve">
<style type="text/css">
	.st0{fill:#FFFFFF;}
	.st1{fill:none;stroke:#FFFFFF;stroke-width:8;stroke-miterlimit:10;}
</style>
<g>
	<path class="st0" d="M44.3,71.2c-0.8-1.5-1.4-3.7-1.7-6.6c-0.1-1-0.9-1.7-1.9-1.7h-3.7c-1.1,0-1.9,0.9-1.9,2
		c0.2,3.8,0.9,6.9,2.3,9.3c2.6,4.8,7.5,7.6,14.7,8.4c1,0.1,1.7,0.9,1.7,1.9V89c0,1,0.8,1.9,1.9,1.9H56c1,0,1.9-0.8,1.9-1.9v-4.5
		c0-0.9,0.7-1.7,1.6-1.9c4.2-0.6,7.5-1.7,9.9-3.2c4.8-3.1,7.1-8.3,7.1-15.7c0-5.1-1.9-8.9-5.6-11.5c-2.2-1.4-6.1-3-11.7-4.7
		c-0.8-0.2-1.4-1-1.4-1.8V29.1c0-1.2,1.1-2.1,2.2-1.9c2.7,0.5,4.7,1.9,6.1,4.1c0.7,1.1,1.2,2.5,1.5,3.9c0.2,0.9,0.9,1.5,1.8,1.5h3.6
		c1.1,0,2-1,1.9-2.1c-0.5-3.7-2-6.8-4.5-9.2c-2.6-2.5-6.3-4.1-10.9-4.7c-1-0.1-1.7-0.9-1.7-1.9v-1.9c0-1-0.8-1.9-1.9-1.9h-0.2
		c-1,0-1.9,0.8-1.9,1.9V19c0,0.9-0.7,1.7-1.6,1.8c-4.8,0.3-8.6,2.1-11.3,5.1c-3,3.4-4.6,7.1-4.6,11.4c0,4.7,1.4,8.4,4.3,11
		c2.6,2.4,6.5,4.2,11.8,5.4c0.9,0.2,1.5,0.9,1.5,1.8v18.9c0,1.2-1.1,2.1-2.3,1.8C48.2,75.5,45.7,73.8,44.3,71.2L44.3,71.2z
		 M57.8,57.4c0-1.3,1.2-2.2,2.5-1.8c2.2,0.7,3.8,1.5,4.9,2.3c2.5,1.8,3.8,4.4,3.8,7.9c0,2.2-0.5,4.1-1.4,5.7c-1.5,2.7-4.1,4.4-7.6,5
		c-1.1,0.2-2.2-0.7-2.2-1.9V57.4z M46.5,43.1c-1.8-1.5-2.8-3.7-2.8-6.4c0-2.2,0.8-4.4,2.3-6.5c1.2-1.6,3.1-2.7,5.6-3.1
		c1.1-0.2,2.2,0.7,2.2,1.9v15c0,1.3-1.2,2.2-2.4,1.8C49.5,45.2,47.8,44.3,46.5,43.1L46.5,43.1z M46.5,43.1"/>
	<g id="XMLID_1_">
		<g>
			<path class="st0" d="M55.6,105.5c0,7,1.1,13.9,3.3,20.6h22.2c-1.1-7-1.6-13.9-1.6-20.6c0-2.4,0.1-4.8,0.2-7.2
				c3.6-1.8,6.9-4.1,10-6.6c-0.6,4.6-0.8,9.2-0.8,13.8c0,6.4,0.6,13.3,1.7,20.6h27.9V84.7h-22c2.3-2.8,4.2-5.8,5.8-9.1h16.2V40.1
				c-4.1,1.1-7.9,3.6-11.5,7.5c-0.7-5.2-2.2-10.1-4.4-14.6c6.7-1.9,13.5-2.8,20.6-2.8c10.4,0,20.3,2,29.9,6c19.1,8,32.9,21.5,41,40
				c4.1,9.3,6.1,19.1,6.1,29.3c0,10.2-2.1,20-6.1,29.4c-8.1,18.5-21.9,32.1-41,40.1c-9.5,4-19.4,6-29.9,6c-10.4,0-20.3-2-29.9-6
				c-18.9-8-32.8-21.5-41-40.1c-4.1-9.3-6.1-19.1-6.1-29.4c0-0.8,0-1.5,0-2.3c3,0.5,6.1,0.8,9.3,0.8c0,0,0,0,0,0
				C55.6,104.5,55.6,105,55.6,105.5z M187.5,126.2c2.2-6.7,3.3-13.6,3.3-20.6c0-7.2-1.2-14.1-3.5-20.8h-22c1.1,7,1.6,13.9,1.6,20.8
				c0,6.8-0.5,13.6-1.6,20.6H187.5z M163.4,75.6h20.1c-7.4-14.1-19.8-25.4-34.7-31.4C155.5,52.5,160.3,62.9,163.4,75.6z
				 M183.5,135.2h-20.1c-3.1,12.9-8,23.6-14.6,31.8C163.9,160.8,176.4,149.5,183.5,135.2z M155.9,126.2c1.1-7.3,1.7-14.2,1.7-20.6
				c0-6.9-0.6-13.9-1.9-20.8h-27.8v41.4H155.9z M127.9,75.6h25.8c-2.6-9.4-6.2-17.3-10.8-23.7c-4.6-6.4-9.6-10.4-15.1-11.9V75.6z
				 M153.8,135.2h-25.8v35.9c5.6-1.5,10.5-5.5,15.1-12C147.7,152.7,151.2,144.7,153.8,135.2z M118.4,171.1v-35.9H92.6
				c2.4,9.5,6,17.5,10.6,23.9C107.8,165.6,113,169.6,118.4,171.1z M97.6,167c-6.7-8.2-11.5-18.8-14.6-31.8H62.8
				C70,149.5,82.4,160.8,97.6,167z"/>
		</g>
		<g>
			<path class="st1" d="M102.5,33C94.3,15.9,76.4,4,55.6,4C27,4,3.9,26.4,3.9,54c0,24.5,18.3,45,42.4,49.2c3,0.5,6.1,0.8,9.3,0.8
				c0,0,0,0,0,0c8.7,0,16.9-2.1,24.1-5.7c3.6-1.8,6.9-4.1,10-6.6c2.5-2.1,4.8-4.4,6.8-6.9c2.3-2.8,4.2-5.8,5.8-9.1
				c3.3-6.5,5.1-13.9,5.1-21.6c0-2.2-0.1-4.3-0.4-6.4C106.2,42.5,104.7,37.5,102.5,33z"/>
		</g>
	</g>
</g>
</svg>
